<svg width="23" height="34" viewBox="0 0 23 34" fill="none" xmlns="http://www.w3.org/2000/svg">
<mask id="mask0_340_1817" style="mask-type:luminance" maskUnits="userSpaceOnUse" x="0" y="0" width="23" height="34">
<path d="M0 0H22.5V33.5H0V0Z" fill="white"/>
</mask>
<g mask="url(#mask0_340_1817)">
<mask id="mask1_340_1817" style="mask-type:luminance" maskUnits="userSpaceOnUse" x="0" y="0" width="23" height="34">
<path d="M3.75167 16.401C3.88741 16.5887 4.01893 16.786 4.18248 17.0307C4.84472 18.0222 6.02334 19.7856 7.05147 20.7122C7.53118 21.1451 7.66143 21.3878 7.67534 21.3538C7.90635 20.7535 7.83553 19.4916 7.69684 18.257C7.59104 17.3168 7.44013 16.382 7.28753 15.4397C6.9992 13.6561 6.70623 11.8468 6.69274 10.1103C6.1772 10.2686 5.66882 10.4501 5.19839 10.6664C4.56819 10.9554 3.99911 11.3089 3.57294 11.7563C2.97562 12.3839 2.73408 13.0814 2.74546 13.7805C2.75937 14.6596 3.15562 15.577 3.75167 16.4019V16.401ZM2.45966 18.138C2.27797 17.8663 2.1317 17.6468 2.0769 17.5715C1.25912 16.4387 0.714069 15.128 0.692993 13.8029C0.674023 12.6043 1.07491 11.4226 2.06805 10.3794C2.69108 9.72452 3.47641 9.22879 4.32876 8.83807C5.136 8.46803 5.99341 8.19473 6.82131 7.96815L6.84449 7.96195C7.17161 5.95668 8.0796 4.11721 10.0684 2.61429C10.5085 2.28146 10.9768 1.96971 11.4608 1.68773C13.0023 0.790528 14.7795 0.146775 16.4387 0.039689C18.2517 -0.0769061 19.9257 0.429166 21.0672 1.8866C21.1966 2.0524 21.3155 2.22357 21.4213 2.39971L21.4651 2.47206C21.9044 3.20057 22.2572 3.78438 22.4051 4.3719C22.7702 5.82024 22.1564 6.68726 19.5399 7.32399C18.8668 7.48813 17.7168 7.70892 16.3084 7.98014C14.0802 8.40849 11.2045 8.96169 8.78019 9.55128C8.70221 11.3201 9.01162 13.2381 9.31597 15.1235C9.477 16.1195 9.63718 17.1076 9.74172 18.0359C9.90865 19.5226 9.9702 21.1 9.59924 22.0667C8.98422 23.6671 7.8056 24.1352 5.65913 22.1998C4.4392 21.1 3.17206 19.2047 2.4605 18.1388L2.45966 18.138ZM11.3233 4.2123C10.1595 5.09214 9.48079 6.1783 9.11911 7.39304C11.4093 6.86133 13.9187 6.37841 15.9118 5.99513C17.3227 5.72391 18.4751 5.50229 19.0476 5.36296C20.1263 5.10041 20.4361 4.96852 20.4079 4.85482C20.3341 4.56333 20.0492 4.08992 19.6934 3.50116L19.6495 3.4288C19.58 3.31262 19.5092 3.21008 19.4405 3.12119C18.7757 2.27236 17.7299 1.98253 16.5668 2.05695C15.2495 2.14129 13.7952 2.67838 12.5062 3.42798C12.0829 3.6744 11.685 3.93777 11.3233 4.2123ZM18.7496 17.0994C18.6682 16.9869 18.5139 16.7566 18.3234 16.4705H18.3192C17.6569 15.479 16.4787 13.7148 15.4506 12.7882C14.9705 12.3549 14.8402 12.1127 14.8263 12.1466C14.5957 12.7469 14.6661 14.0088 14.8048 15.2434C14.9106 16.1831 15.0615 17.118 15.2141 18.0607C15.5025 19.8443 15.7946 21.6536 15.8085 23.3901C16.3236 23.2318 16.832 23.0503 17.3028 22.834C17.933 22.545 18.5017 22.1915 18.9283 21.7442C19.5252 21.1165 19.7667 20.4207 19.7554 19.7236V19.7199C19.7414 18.8409 19.3452 17.9234 18.7496 17.0985V17.0994ZM20.039 15.3645C20.1925 15.5936 20.316 15.778 20.4239 15.9289C21.2413 17.0609 21.7855 18.3699 21.8078 19.693C21.8268 20.8937 21.4259 22.077 20.4332 23.1201C19.8097 23.7751 19.0248 24.2708 18.1721 24.6615C17.3657 25.0316 16.507 25.3049 15.6795 25.5314L15.6567 25.5376C15.3292 27.5429 14.4216 29.3824 12.4337 30.8853C11.9936 31.2181 11.5248 31.5299 11.0413 31.8118C9.49934 32.7091 7.72129 33.3528 6.06296 33.4599C4.24993 33.5765 2.576 33.0704 1.43532 31.613C1.30591 31.4472 1.18703 31.276 1.08123 31.0999L1.03739 31.0275C0.598147 30.299 0.245319 29.7152 0.0973596 29.1277C-0.267271 27.6793 0.346067 26.8123 2.96255 26.1756C3.63575 26.0123 4.7857 25.7907 6.19406 25.5194C8.42231 25.0911 11.2989 24.5371 13.7223 23.9483C13.8003 22.1795 13.4909 20.2615 13.1865 18.3761C13.0255 17.3797 12.8653 16.3919 12.7608 15.4637C12.5938 13.9769 12.5323 12.3996 12.9037 11.4338C13.5183 9.83326 14.6969 9.36523 16.8434 11.3006C18.0633 12.4004 19.3304 14.2965 20.042 15.3616L20.039 15.3628V15.3645ZM11.1775 29.2881C12.3413 28.4083 13.02 27.3221 13.3817 26.1078C11.0919 26.6395 8.58165 27.1224 6.5882 27.5061C5.17773 27.7773 4.02609 27.9985 3.45322 28.1379C2.37451 28.4 2.06468 28.5327 2.09334 28.6464C2.16669 28.9379 2.45207 29.4109 2.80785 30.0009L2.85127 30.0733C2.92124 30.189 2.9908 30.2916 3.06077 30.3805C3.72554 31.2293 4.77137 31.5195 5.93439 31.4447C7.25128 31.3599 8.706 30.8233 9.99465 30.0733C10.4179 29.8268 10.8158 29.5631 11.1775 29.2889V29.2881Z" fill="white"/>
</mask>
<g mask="url(#mask1_340_1817)">
<path d="M0 0V33.5H22.5V0H0Z" fill="white"/>
</g>
</g>
</svg>
